<?xml version="1.0" encoding="UTF-8" standalone="no"?>
<!DOCTYPE svg PUBLIC "-//W3C//DTD SVG 1.1//EN" "http://www.w3.org/Graphics/SVG/1.1/DTD/svg11.dtd">
<!-- Created with Vectornator (http://vectornator.io/) -->
<svg height="100%" stroke-miterlimit="10" style="fill-rule:nonzero;clip-rule:evenodd;stroke-linecap:round;stroke-linejoin:round;" version="1.1" viewBox="0 0 512 512" width="100%" xml:space="preserve" xmlns="http://www.w3.org/2000/svg" xmlns:vectornator="http://vectornator.io" xmlns:xlink="http://www.w3.org/1999/xlink">
<defs/>
<g id="Untitled" vectornator:layerName="Untitled">
<path d="M512 257.555C512 116.17 397.385 1.55499 256 1.55499C114.615 1.55499 0 116.17 0 257.555C0 385.332 93.616 491.24 216 510.445L216 331.555L151 331.555L151 257.555L216 257.555L216 201.155C216 136.995 254.219 101.555 312.695 101.555C340.704 101.555 370 106.555 370 106.555L370 169.555L337.719 169.555C305.918 169.555 296 189.288 296 209.533L296 257.555L367 257.555L355.65 331.555L296 331.555L296 510.445C418.385 491.24 512 385.332 512 257.555Z" fill="#fff0f0" fill-rule="nonzero" opacity="1" stroke="none"/>
</g>
</svg>
