<?xml version="1.0" encoding="UTF-8" standalone="no"?>
<!DOCTYPE svg PUBLIC "-//W3C//DTD SVG 1.1//EN" "http://www.w3.org/Graphics/SVG/1.1/DTD/svg11.dtd">
<!-- Created with Vectornator (http://vectornator.io/) -->
<svg height="100%" stroke-miterlimit="10" style="fill-rule:nonzero;clip-rule:evenodd;stroke-linecap:round;stroke-linejoin:round;" version="1.1" viewBox="0 0 512 512" width="100%" xml:space="preserve" xmlns="http://www.w3.org/2000/svg" xmlns:vectornator="http://vectornator.io" xmlns:xlink="http://www.w3.org/1999/xlink">
<defs/>
<g id="Untitled" vectornator:layerName="Untitled">
<path d="M51.326 185.85L141.337 185.85L141.337 456.722L51.326 456.722L51.326 185.85ZM96.934 55.278C66.127 55.278 46 75.503 46 102.049C46 128.049 65.538 148.862 95.756 148.862L96.33 148.862C127.726 148.862 147.278 128.048 147.278 102.049C146.689 75.503 127.727 55.278 96.934 55.278ZM362.339 179.487C314.56 179.487 293.155 205.767 281.214 224.197L281.214 185.85L191.176 185.85C192.368 211.261 191.176 456.722 191.176 456.722L281.214 456.722L281.214 305.448C281.214 297.346 281.803 289.274 284.172 283.47C290.691 267.296 305.505 250.547 330.354 250.547C362.956 250.547 375.976 275.398 375.976 311.795L375.976 456.721L466 456.721L466 301.398C466 218.199 421.598 179.487 362.339 179.487Z" fill="#fff0f0" fill-rule="nonzero" opacity="1" stroke="none"/>
</g>
</svg>
